<svg width="155" height="144" viewBox="0 0 155 144" fill="none" xmlns="http://www.w3.org/2000/svg">
<g clip-path="url(#clip0_77_2)">
<path d="M150.285 127.076C147.685 127.076 145.57 129.18 145.57 131.768H147.602C147.602 130.295 148.806 129.098 150.285 129.098C151.767 129.098 152.967 130.293 152.967 131.768C152.967 132.291 152.816 132.825 152.529 133.312C152.228 133.824 151.783 134.279 151.242 134.627C150.981 134.795 150.723 134.951 150.467 135.1C149.985 134.747 149.899 134.63 148.666 133.764C147.184 132.722 144.92 131.34 142.391 131.34V133.361C144.342 133.361 146.238 134.534 147.494 135.416C148.031 135.793 148.301 135.995 148.561 136.193C148.133 136.458 147.738 136.733 147.402 137.047C146.623 137.777 146.244 138.624 146.244 139.637C146.244 141.753 147.97 143.471 150.096 143.471C152.22 143.471 153.947 141.751 153.947 139.637C153.947 138.407 153.066 137.293 152.154 136.445C153.035 135.93 153.748 135.195 154.283 134.334C154.752 133.537 155 132.65 155 131.768C155 129.177 152.889 127.076 150.285 127.076ZM99.5 131.359V133.318V143.277H101.818V139.311V137.369V133.318H102.203H103.836C104.57 133.318 105.143 133.491 105.555 133.834C105.966 134.177 106.172 134.669 106.172 135.311C106.172 135.941 105.966 136.442 105.555 136.813C105.143 137.183 104.57 137.369 103.836 137.369C103.824 137.369 103.813 137.37 103.801 137.371L103.322 139.299C103.478 139.308 103.635 139.314 103.793 139.314C103.825 139.314 103.858 139.314 103.891 139.312C104.82 139.308 105.627 139.149 106.313 138.838C107.007 138.522 107.544 138.066 107.922 137.469C108.299 136.871 108.49 136.146 108.49 135.295C108.49 134.433 108.299 133.707 107.922 133.127C107.544 132.546 107.007 132.107 106.313 131.808C105.618 131.51 104.798 131.359 103.854 131.359L99.5 131.359ZM111.986 131.359L107.449 143.277H109.785L110.49 141.332C110.924 140.3 111.752 140.218 112.715 140.234C112.778 140.236 112.837 140.236 112.891 140.236H115.443L116.523 143.277H119.025L114.539 131.359H111.986ZM120.389 131.359V135.137V143.273H122.707V140.168V139.309V139.291V137.367V136.678V135.137V133.319H124.725C125.458 133.319 126.03 133.49 126.441 133.832C126.853 134.175 127.059 134.667 127.059 135.309C127.059 135.531 127.031 135.738 126.98 135.928C126.887 136.277 126.708 136.571 126.441 136.811C126.219 137.011 125.948 137.156 125.631 137.248C125.362 137.326 125.061 137.367 124.725 137.367H124.691L124.609 137.695L124.209 139.309L124.123 139.662C124.743 139.905 125.306 140.243 125.807 140.674C126.363 141.153 126.84 141.743 127.23 142.438C127.379 142.702 127.514 142.98 127.637 143.274H129.793C129.625 142.766 129.425 142.287 129.197 141.836C128.694 140.84 128.05 139.987 127.287 139.293C127.16 139.178 127.028 139.066 126.894 138.959C126.999 138.921 127.102 138.881 127.201 138.836C127.231 138.822 127.258 138.807 127.287 138.793C127.939 138.48 128.447 138.039 128.809 137.467C128.825 137.441 128.84 137.415 128.855 137.389C129.202 136.807 129.377 136.109 129.377 135.293C129.377 134.43 129.186 133.708 128.808 133.127C128.431 132.546 127.896 132.107 127.201 131.809C126.506 131.51 125.687 131.36 124.742 131.36L120.389 131.359ZM131.547 131.359V134.598V143.277H133.865V131.359H131.547ZM137.463 131.869C136.974 132.155 136.576 132.516 136.271 132.953C135.893 133.495 135.703 134.114 135.703 134.811C135.703 135.308 135.786 135.743 135.953 136.113C136.12 136.484 136.352 136.803 136.646 137.068C136.941 137.334 137.283 137.549 137.672 137.715C138.061 137.881 138.477 138.009 138.922 138.098C139.555 138.219 140.189 138.341 140.822 138.463C141.389 138.574 141.82 138.751 142.115 138.994C142.41 139.238 142.557 139.563 142.557 139.973C142.557 140.316 142.453 140.61 142.248 140.859C142.042 141.108 141.764 141.297 141.414 141.424C141.064 141.551 140.661 141.615 140.205 141.615C139.393 141.615 138.771 141.411 138.338 141.002C137.904 140.593 137.666 140.05 137.621 139.375H135.27C135.336 140.194 135.575 140.907 135.986 141.516C136.397 142.124 136.965 142.596 137.687 142.934C138.41 143.271 139.266 143.441 140.256 143.441C141.256 143.441 142.108 143.277 142.814 142.951C143.52 142.625 144.066 142.173 144.449 141.598C144.833 141.023 145.025 140.371 145.025 139.641C145.025 138.756 144.747 138.067 144.191 137.574C143.635 137.082 142.834 136.732 141.789 136.522C141.133 136.389 140.478 136.256 139.822 136.123C139.511 136.057 139.222 135.968 138.955 135.857C138.688 135.747 138.471 135.594 138.305 135.4C138.138 135.207 138.055 134.961 138.055 134.662C138.055 134.363 138.138 134.089 138.305 133.84C138.397 133.701 138.514 133.58 138.65 133.473L137.463 131.869ZM113.188 133.883L114.725 138.211H112.891L112.744 138.209C112.49 138.206 112.075 138.201 111.598 138.273L113.188 133.883ZM150.311 137.514C151.219 138.244 151.914 138.992 151.914 139.637C151.914 140.635 151.099 141.447 150.096 141.447C149.091 141.447 148.275 140.637 148.275 139.637C148.275 138.798 148.849 138.344 150.311 137.514Z" fill="white"/>
<path d="M87.2461 127.471L85.625 130.014H87.4863L89.2695 127.471H87.2461ZM61.8555 131.406C59.6662 131.406 58.0781 132.88 58.0781 134.908C58.0781 136.612 59.0412 137.688 60.9434 138.105L62.4316 138.422C63.6038 138.703 64.082 139.161 64.082 140.002C64.082 141.047 63.2368 141.721 61.9277 141.721C60.481 141.721 59.6445 140.922 59.5723 139.471L59.5643 139.34H57.7108L57.7187 139.486C57.8554 141.895 59.4787 143.391 61.9551 143.391C64.3779 143.391 66.0059 141.933 66.0059 139.764C66.0059 138.096 65.1016 137.116 63.1562 136.678L61.6367 136.344C60.4243 136.063 59.9297 135.616 59.9297 134.797C59.9297 133.969 60.5366 133.076 61.8691 133.076C63.067 133.076 63.9276 133.956 64.0098 135.266L64.0196 135.395H65.8712L65.8632 135.248C65.7329 132.95 64.1216 131.406 61.8555 131.406ZM0 131.564V139.002C0 141.717 1.60715 143.471 4.09375 143.471C6.58939 143.471 8.20117 141.717 8.20117 139.002V131.564H6.37695V139.049C6.37695 140.662 5.52398 141.625 4.09375 141.625C2.67293 141.625 1.82422 140.662 1.82422 139.049V131.564H0ZM11.1504 131.564V143.232H12.8594V134.643L18.0879 143.232H19.8672V131.564H18.1582V139.918L13.0605 131.564H11.1504ZM22.8477 131.564V143.232H24.6699V131.564H22.8477ZM26.707 131.564L30.5508 143.143L30.5801 143.232H32.4863L36.3613 131.564H34.5215L31.5703 140.656L28.6621 131.564H26.707ZM38.4121 131.564V143.232H45.1797V141.436H40.2363V138.123H44.6504V136.326H40.2363V133.363H45.0801V131.564H38.4121ZM47.7871 131.564V143.232H49.6094V138.947H51.3125L53.8769 143.232H56.0684L53.2422 138.641C54.7378 138.172 55.6582 136.89 55.6582 135.256C55.6582 132.944 54.1966 131.564 51.75 131.564H47.7871ZM68.584 131.564V143.232H70.4082V131.564H68.584ZM72.5547 131.564V133.41H75.9082V143.232H77.7305V133.41H81.084V131.564H72.5547ZM83.2324 131.564V143.232H90V141.436H85.0547V138.123H89.4687V136.326H85.0547V133.363H89.9004V131.564H83.2324ZM49.6094 133.299H51.6504C52.6401 133.299 53.8203 133.638 53.8203 135.256C53.8203 136.873 52.6401 137.215 51.6504 137.215H49.6094V133.299Z" fill="white"/>
<path d="M0 95.842V120.797H2.74237C5.14663 120.797 7.92657 120.685 9.6922 118.814C11.9838 116.382 12.0965 111.818 12.0965 108.675C12.0965 105.382 12.0213 100.781 9.84247 98.1242C8.26467 96.1787 6.61173 95.842 4.1699 95.842H0ZM3.381 117.879V98.6854H3.79424C7.2128 98.6854 7.96413 101.043 8.3398 103.923C8.52765 105.532 8.56522 107.178 8.56522 108.787C8.56522 110.321 8.52773 111.892 8.30223 113.426C7.81387 116.419 6.72444 117.879 3.53127 117.879H3.381ZM24.4183 120.797V117.953H18.8209V109.461H23.7797V106.617H18.8209V98.6854H24.4183V95.842H15.4399V120.797H24.4183ZM52.443 120.797L50.1139 95.842H47.1837L45.2302 105.869C45.1175 106.467 44.9673 107.029 44.8545 107.627C44.7043 108.525 44.5916 109.461 44.4413 110.358C44.2535 111.518 43.9529 112.678 43.8778 113.875C43.6148 111.855 43.3143 109.835 42.9386 107.814C42.8259 107.216 42.6381 106.617 42.5254 106.018L40.3465 95.842H37.4539L35.3877 120.797H38.5433L39.5201 103.624C40.2338 109.423 41.6238 115.11 42.8259 120.797H45.0799C46.1694 115.073 47.3715 109.386 48.2731 103.624C48.4609 104.784 48.3482 105.944 48.3858 107.103C48.4232 108.226 48.4985 109.311 48.5361 110.433C48.6864 113.875 48.9493 117.355 49.1747 120.797H52.443ZM67.7326 108.787C67.7326 105.719 67.6575 100.855 66.1172 98.1991C65.0278 96.3658 63.2997 95.5427 61.196 95.5427C58.7917 95.5427 57.1012 96.4032 56.0494 98.5732C54.7721 101.23 54.697 104.821 54.697 107.74C54.697 110.695 54.8097 115.746 56.2372 118.328C57.2891 120.236 59.1298 121.134 61.2711 121.134C65.441 121.134 66.7559 118.328 67.3569 114.661C67.6575 112.716 67.7326 110.77 67.7326 108.787ZM64.2013 107.852C64.2013 110.022 64.2388 114.324 63.5627 116.232C63.1495 117.317 62.4357 118.028 61.2336 118.028C59.3552 118.028 58.8293 116.307 58.5663 114.773C58.1531 112.192 58.2283 109.498 58.2283 106.879C58.2283 105.121 58.2283 101.043 59.2426 99.6208C59.7309 98.9099 60.2944 98.5732 61.196 98.5732C62.6987 98.5732 63.3749 99.5834 63.6754 100.93C64.2014 103.175 64.2013 105.57 64.2013 107.852ZM82.7593 120.797V95.842H79.3783V105.308C79.3783 108.488 79.7539 111.668 80.1672 114.811C78.627 108.338 76.3729 102.127 74.2317 95.842H71.076V120.797H74.4195C74.3443 115.671 74.3068 110.508 74.0062 105.382C73.9311 104.11 73.8935 102.838 73.7057 101.604C74.0438 102.838 74.2317 104.11 74.5322 105.345C74.7951 106.393 75.1333 107.403 75.4714 108.413C76.7862 112.566 78.2137 116.681 79.6037 120.797H82.7593ZM95.5695 98.7977V95.842H84.6001V98.7977H88.4319V120.797H91.7377V98.7977H95.5695ZM108.831 120.797L104.06 108.675C106.99 108.001 107.666 104.784 107.666 102.352C107.666 100.369 107.215 98.0494 105.525 96.7774C104.398 95.9168 103.233 95.842 101.881 95.842H97.4103V120.797H100.791V109.161L105.374 120.797H108.831ZM100.791 98.6106H101.355C102.332 98.6106 103.158 98.7229 103.721 99.6582C104.247 100.556 104.398 101.94 104.398 102.951C104.398 104.11 104.172 105.532 103.233 106.318C102.557 106.879 101.655 106.916 100.791 106.916V98.6106ZM120.401 120.797V117.953H114.804V109.461H119.762V106.617H114.804V98.6854H120.401V95.842H111.423V120.797H120.401ZM135.014 95.842H131.709V114.175C131.709 116.045 131.784 117.953 129.304 117.953C126.938 117.953 126.787 116.008 126.787 114.175V95.842H123.481V114.287C123.481 118.29 124.608 121.134 129.192 121.134C134.075 121.134 135.014 118.477 135.014 114.175V95.842ZM142.227 120.797V95.842H138.846V120.797H142.227ZM155 120.797V117.953H149.478V95.842H146.097V120.797H155Z" fill="white"/>
<path d="M111 0V54.4707C111 62.162 114.055 69.5382 119.494 74.9768C124.932 80.4153 132.309 83.4707 140 83.4707H155V64.4707H140C134.46 64.4707 130 60.0107 130 54.4707V27.3281V0H111Z" fill="white"/>
<path d="M155 30.0007L136 40.9707V19.4707L155 8.5007L155 30.0007Z" fill="white"/>
<path d="M36 0V54.4707C36 62.162 39.0553 69.5382 44.4939 74.9768C49.9325 80.4153 57.3087 83.4707 65 83.4707C68.8083 83.4707 72.5794 82.7206 76.0978 81.2632C79.6163 79.8058 82.8132 77.6697 85.5061 74.9768C88.199 72.2839 90.3351 69.087 91.7925 65.5685C93.2499 62.0501 94 58.279 94 54.4707V10.9707L75 0V54.4707C75 55.7839 74.7413 57.0843 74.2388 58.2975C73.7362 59.5108 72.9997 60.6132 72.0711 61.5418C71.1425 62.4704 70.0401 63.207 68.8268 63.7095C67.6136 64.212 66.3132 64.4707 65 64.4707C63.6868 64.4707 62.3864 64.212 61.1732 63.7095C59.9599 63.207 58.8575 62.4704 57.9289 61.5418C57.0003 60.6132 56.2637 59.5108 55.7612 58.2975C55.2586 57.0843 55 55.7839 55 54.4707V10.9707L36 0Z" fill="white"/>
<path d="M19.0004 21.5007L0 32.4707V10.9707L19 0.000701904L19.0004 21.5007Z" fill="white"/>
<path d="M3.60444e-06 41.4404L19 30.4707V83.4707H0L3.60444e-06 41.4404Z" fill="white"/>
</g>
<defs>
<clipPath id="clip0_77_2">
<rect width="155" height="143.471" fill="white"/>
</clipPath>
</defs>
</svg>
